<?xml version="1.0" encoding="UTF-8" standalone="no"?>
<!-- Created with Inkscape (http://www.inkscape.org/) -->

<svg
   xmlns:dc="http://purl.org/dc/elements/1.1/"
   xmlns:cc="http://creativecommons.org/ns#"
   xmlns:rdf="http://www.w3.org/1999/02/22-rdf-syntax-ns#"
   xmlns:svg="http://www.w3.org/2000/svg"
   xmlns="http://www.w3.org/2000/svg"
   xmlns:sodipodi="http://sodipodi.sourceforge.net/DTD/sodipodi-0.dtd"
   xmlns:inkscape="http://www.inkscape.org/namespaces/inkscape"
   width="27.091465mm"
   height="32.69249mm"
   viewBox="0 0 27.091465 32.69249"
   version="1.1"
   id="svg11150"
   inkscape:version="0.92.1 r15371"
   sodipodi:docname="k.svg">
  <defs
     id="defs11144" />
  <sodipodi:namedview
     id="base"
     pagecolor="#ffffff"
     bordercolor="#666666"
     borderopacity="1.0"
     inkscape:pageopacity="0.0"
     inkscape:pageshadow="2"
     inkscape:zoom="1.4382812"
     inkscape:cx="-79.645459"
     inkscape:cy="143.39273"
     inkscape:document-units="mm"
     inkscape:current-layer="layer1"
     showgrid="false"
     fit-margin-top="0"
     fit-margin-left="0"
     fit-margin-right="0"
     fit-margin-bottom="0"
     inkscape:window-width="1879"
     inkscape:window-height="1176"
     inkscape:window-x="41"
     inkscape:window-y="24"
     inkscape:window-maximized="1" />
  <metadata
     id="metadata11147">
    <rdf:RDF>
      <cc:Work
         rdf:about="">
        <dc:format>image/svg+xml</dc:format>
        <dc:type
           rdf:resource="http://purl.org/dc/dcmitype/StillImage" />
        <dc:title></dc:title>
      </cc:Work>
    </rdf:RDF>
  </metadata>
  <g
     inkscape:label="Calque 1"
     inkscape:groupmode="layer"
     id="layer1"
     transform="translate(-81.008675,-154.08017)">
    <path
       inkscape:connector-curvature="0"
       id="path11043"
       style="display:inline;fill:#b1ddbd;fill-opacity:1;fill-rule:nonzero;stroke:none;stroke-width:1.78374147"
       d="m 84.890108,177.10844 c -2.397362,-2.44557 -3.881433,-5.79005 -3.881433,-9.48247 0,-7.48448 6.06294,-13.5458 13.545741,-13.5458 7.475654,0 13.545724,6.06132 13.545724,13.5458 0,3.69242 -1.48407,7.0369 -3.88855,9.48247 l -9.657174,9.66422 z" />
    <path
       inkscape:connector-curvature="0"
       id="path11109"
       style="display:inline;fill:#ffffff;fill-opacity:1;fill-rule:nonzero;stroke:none;stroke-width:0.69377083"
       d="m 99.333443,163.94003 h -3.447338 l -2.549613,3.47441 c -0.260161,0.34129 -0.317046,0.40372 -0.325371,0.41204 -0.130432,0.12136 -0.257395,0.18102 -0.373945,0.18102 -0.116557,0 -0.170671,-0.0371 -0.197722,-0.14915 -0.04647,-0.17346 -0.07077,-0.39819 -0.07077,-0.66878 v -9.58021 h -2.593312 v 17.51765 h 2.593315 v -4.65035 c 0,-0.20605 0.06244,-0.20605 0.108229,-0.20605 0.0056,0 0.06244,0.006 0.225474,0.12489 0.02707,0.0133 0.06452,0.0405 0.09991,0.0617 0.05966,0.0625 0.197725,0.23311 0.514774,0.69929 0.260166,0.38783 0.409324,0.60429 0.441934,0.65631 l 2.338694,3.31148 3.149031,0.005 -4.235471,-6.00242 z" />
  </g>
</svg>
